<svg width="26" height="70" viewBox="0 0 26 70" fill="none" xmlns="http://www.w3.org/2000/svg">
<path d="M19.1464 37.9072V36H24V37.9072C24 41.1715 22.7685 46.6365 20.2693 54.3387L15.2347 70H9.76535L4.73071 54.3387C2.23149 46.6365 1 41.1715 1 37.9072V36H5.85353V37.9072C5.85353 39.4476 6.14331 41.4649 6.68661 43.959H18.3496C18.8567 41.4282 19.1464 39.411 19.1464 37.9072ZM12.4819 63.9482L16.1039 52.2114C16.6835 50.3775 17.1543 48.727 17.5528 47.1866H7.41101C7.80944 48.727 8.28031 50.4142 8.85984 52.2114L12.4819 63.9482Z" fill="#222222"/>
<path d="M7.86574 15.6718L8.24544 14.2467L6.77398 14.1469C4.00985 13.9593 1.82491 11.6562 1.82491 8.84381C1.82491 5.90819 4.20471 3.52839 7.14033 3.52839C9.23248 3.52839 11.0446 4.73695 11.9125 6.49952L13.0025 8.71319L14.0925 6.49952C14.9603 4.73695 16.7725 3.52839 18.8646 3.52839C21.8003 3.52839 24.1801 5.90819 24.1801 8.84381C24.1801 11.6562 21.9951 13.9593 19.231 14.1469L17.7595 14.2467L18.1392 15.6718C18.2555 16.1084 18.3179 16.5683 18.3179 17.0447C18.3179 19.9803 15.9381 22.3601 13.0025 22.3601C10.0669 22.3601 7.68706 19.9803 7.68706 17.0447C7.68706 16.5683 7.74942 16.1084 7.86574 15.6718Z" fill="#2C2C2C"/>
</svg>
