<svg width="0" height="0" class="hidden">
  <symbol xmlns="http://www.w3.org/2000/svg" id="middle">
    <path d="M76.8668 46.0077C75.766 47.9663 73.6684 49.2894 71.2617 49.2894C67.7132 49.2894 64.8365 46.4128 64.8365 42.8642C64.8365 39.6277 67.2295 36.9501 70.3427 36.5042C70.4096 35.8305 70.444 35.1464 70.444 34.4532C70.444 23.1623 61.2909 14.0093 50.0001 14.0093C38.7092 14.0093 29.5561 23.1623 29.5561 34.4532C29.5561 35.1464 29.5905 35.8305 29.6574 36.5042C32.7706 36.9501 35.1636 39.6277 35.1636 42.8642C35.1636 46.4128 32.2869 49.2894 28.7384 49.2894C26.3317 49.2894 24.2341 47.9663 23.1333 46.0077C13.9188 47.989 7.0094 56.1868 7.0094 65.995C7.0094 77.2859 16.1625 86.439 27.4533 86.439C35.0513 86.439 41.6892 82.2946 45.216 76.1253C44.1955 74.9879 43.5748 73.4845 43.5748 71.8362C43.5748 68.2876 46.4515 65.4109 50.0001 65.4109C53.5486 65.4109 56.4253 68.2876 56.4253 71.8362C56.4253 73.4845 55.8046 74.9879 54.7841 76.1253C58.3109 82.2946 64.9488 86.439 72.5468 86.439C83.8377 86.439 92.9907 77.2859 92.9907 65.995C92.9907 56.1868 86.0813 47.989 76.8668 46.0077Z"></path>
    <path d="M71.2617 45.7847C70.6707 45.7847 70.1206 45.6092 69.6609 45.3073C69.2007 45.0052 68.8309 44.5764 68.6012 44.0706C68.4342 43.7029 68.3412 43.2944 68.3412 42.8642C68.3412 41.8888 68.8193 41.0252 69.5539 40.4947C70.0342 40.148 70.6241 39.9436 71.2617 39.9436C72.8747 39.9436 74.1823 41.2512 74.1823 42.8642C74.1823 44.0272 73.5025 45.0314 72.5186 45.5012C72.1379 45.683 71.7117 45.7847 71.2617 45.7847Z"></path>
    <path d="M52.9206 71.8362C52.9206 72.0082 52.9057 72.1768 52.8772 72.3407C52.6382 73.7132 51.441 74.7567 50.0001 74.7567C48.5591 74.7567 47.3619 73.7132 47.1229 72.3407C47.0944 72.1768 47.0795 72.0082 47.0795 71.8362C47.0795 70.7119 47.7147 69.7361 48.6458 69.2479C49.0505 69.0357 49.5113 68.9156 50.0001 68.9156C50.4888 68.9156 50.9496 69.0357 51.3544 69.2479C52.2854 69.7361 52.9206 70.7119 52.9206 71.8362Z"></path>
    <path d="M28.7384 45.7847C28.2884 45.7847 27.8622 45.683 27.4815 45.5012C26.4976 45.0314 25.8178 44.0272 25.8178 42.8642C25.8178 41.2512 27.1254 39.9436 28.7384 39.9436C29.376 39.9436 29.9659 40.148 30.4462 40.4947C31.1808 41.0252 31.6589 41.8888 31.6589 42.8642C31.6589 43.2944 31.5659 43.7029 31.3989 44.0706C31.1692 44.5764 30.7994 45.0052 30.3392 45.3073C29.8795 45.6092 29.3294 45.7847 28.7384 45.7847Z"></path>
    <path fill-rule="evenodd" clip-rule="evenodd" d="M47.1534 81.5774C47.985 80.5274 48.7345 79.4094 49.3921 78.2331C49.5922 78.2518 49.795 78.2614 50 78.2614C50.205 78.2614 50.4077 78.2518 50.6078 78.2331C51.2654 79.4094 52.0149 80.5274 52.8465 81.5774C57.447 87.3858 64.5617 91.1119 72.5467 91.1119C86.4183 91.1119 97.6635 79.8667 97.6635 65.9951C97.6635 54.3196 89.6972 44.5048 78.9035 41.6897C78.4447 41.57 77.9807 41.4629 77.512 41.369C77.1404 39.8099 76.2006 38.4713 74.9236 37.584C74.976 37.1622 75.018 36.7372 75.0493 36.3092C75.094 35.6964 75.1168 35.0775 75.1168 34.4532C75.1168 20.5816 63.8716 9.33643 50 9.33643C36.1283 9.33643 24.8832 20.5816 24.8832 34.4532C24.8832 35.0775 24.9059 35.6964 24.9507 36.3092C24.9819 36.7372 25.0239 37.1622 25.0764 37.584C23.7994 38.4712 22.8596 39.8099 22.488 41.369C22.0193 41.4629 21.5553 41.57 21.0964 41.6897C10.3028 44.5048 2.33643 54.3196 2.33643 65.9951C2.33643 79.8667 13.5816 91.1119 27.4532 91.1119C35.4382 91.1119 42.5529 87.3858 47.1534 81.5774ZM71.2617 45.7848C70.6706 45.7848 70.1206 45.6092 69.6608 45.3074C69.2006 45.0052 68.8309 44.5765 68.6011 44.0707C68.4341 43.7029 68.3411 43.2944 68.3411 42.8642C68.3411 41.8889 68.8192 41.0252 69.5538 40.4948C70.0341 40.148 70.624 39.9437 71.2617 39.9437C72.8746 39.9437 74.1822 41.2513 74.1822 42.8642C74.1822 44.0272 73.5024 45.0315 72.5185 45.5013C72.1379 45.683 71.7116 45.7848 71.2617 45.7848ZM64.8364 42.8642C64.8364 39.6277 67.2294 36.9501 70.3427 36.5042C70.4096 35.8306 70.4439 35.1464 70.4439 34.4532C70.4439 23.1624 61.2908 14.0093 50 14.0093C38.7091 14.0093 29.5561 23.1624 29.5561 34.4532C29.5561 35.1464 29.5904 35.8306 29.6573 36.5042C32.7705 36.9501 35.1635 39.6277 35.1635 42.8642C35.1635 46.4128 32.2869 49.2895 28.7383 49.2895C26.3316 49.2895 24.234 47.9663 23.1333 46.0078C13.9187 47.9891 7.00932 56.1868 7.00932 65.9951C7.00932 77.2859 16.1624 86.439 27.4532 86.439C35.0513 86.439 41.6891 82.2946 45.2159 76.1254C44.1954 74.9879 43.5747 73.4846 43.5747 71.8362C43.5747 68.2876 46.4514 65.411 50 65.411C53.5485 65.411 56.4252 68.2876 56.4252 71.8362C56.4252 73.4846 55.8045 74.9879 54.7841 76.1254C58.3109 82.2946 64.9487 86.439 72.5467 86.439C83.8376 86.439 92.9906 77.2859 92.9906 65.9951C92.9906 56.1868 86.0812 47.9891 76.8667 46.0078C75.7659 47.9663 73.6683 49.2895 71.2617 49.2895C67.7131 49.2895 64.8364 46.4128 64.8364 42.8642ZM52.9205 71.8362C52.9205 72.0083 52.9057 72.1768 52.8771 72.3407C52.6381 73.7133 51.4409 74.7568 50 74.7568C48.559 74.7568 47.3618 73.7133 47.1228 72.3407C47.0943 72.1768 47.0794 72.0083 47.0794 71.8362C47.0794 70.712 47.7146 69.7361 48.6457 69.248C49.0505 69.0357 49.5112 68.9156 50 68.9156C50.4888 68.9156 50.9495 69.0357 51.3543 69.248C52.2853 69.7361 52.9205 70.712 52.9205 71.8362ZM27.4814 45.5013C27.8621 45.683 28.2883 45.7848 28.7383 45.7848C29.3293 45.7848 29.8794 45.6092 30.3391 45.3074C30.7994 45.0052 31.1691 44.5765 31.3988 44.0707C31.5658 43.7029 31.6589 43.2944 31.6589 42.8642C31.6589 41.8889 31.1807 41.0252 30.4461 40.4948C29.9658 40.148 29.3759 39.9437 28.7383 39.9437C27.1253 39.9437 25.8177 41.2513 25.8177 42.8642C25.8177 44.0272 26.4975 45.0315 27.4814 45.5013Z"></path>
    <path fill-rule="evenodd" clip-rule="evenodd" d="M48.985 83.0281C49.337 82.5837 49.6755 82.1281 50 81.6619C50.3245 82.1281 50.663 82.5837 51.015 83.0281C56.0396 89.3719 63.8178 93.4484 72.5467 93.4484C87.7088 93.4484 100 81.1571 100 65.9951C100 53.2303 91.2903 42.5057 79.4932 39.4289C79.4297 39.4123 79.3662 39.396 79.3026 39.3799C78.8439 38.3225 78.1838 37.3749 77.3717 36.5846C77.3743 36.5495 77.377 36.5145 77.3795 36.4795C77.4284 35.81 77.4533 35.1343 77.4533 34.4533C77.4533 19.2912 65.162 7 50 7C34.838 7 22.5467 19.2912 22.5467 34.4533C22.5467 35.1344 22.5716 35.8101 22.6205 36.4795C22.623 36.5145 22.6257 36.5495 22.6283 36.5846C21.8162 37.3749 21.1561 38.3225 20.6974 39.3799C20.6338 39.396 20.5702 39.4123 20.5068 39.4289C8.70968 42.5057 0 53.2303 0 65.9951C0 81.1571 12.2912 93.4484 27.4533 93.4484C36.1822 93.4484 43.9604 89.3719 48.985 83.0281ZM52.8466 81.5774C52.318 80.9101 51.8226 80.2152 51.3629 79.4953C51.3103 79.413 51.2582 79.3303 51.2065 79.2473C50.9993 78.9144 50.7997 78.5762 50.6079 78.2331C50.4078 78.2518 50.205 78.2615 50 78.2615C49.795 78.2615 49.5922 78.2518 49.3921 78.2331C49.2003 78.5762 49.0007 78.9144 48.7935 79.2473C48.7418 79.3303 48.6897 79.413 48.6371 79.4953C48.1774 80.2152 47.682 80.9101 47.1534 81.5774C42.5529 87.3858 35.4383 91.1119 27.4533 91.1119C13.5816 91.1119 2.33645 79.8667 2.33645 65.9951C2.33645 54.3196 10.3028 44.5048 21.0964 41.6897C21.5553 41.57 22.0193 41.463 22.488 41.369C22.8596 39.8099 23.7994 38.4713 25.0764 37.584C25.024 37.1622 24.982 36.7372 24.9507 36.3093C24.906 35.6964 24.8832 35.0775 24.8832 34.4533C24.8832 20.5816 36.1284 9.33645 50 9.33645C63.8716 9.33645 75.1168 20.5816 75.1168 34.4533C75.1168 35.0775 75.0941 35.6964 75.0493 36.3093C75.018 36.7372 74.976 37.1622 74.9236 37.584C76.2006 38.4713 77.1404 39.8099 77.512 41.369C77.9807 41.463 78.4447 41.57 78.9036 41.6897C89.6972 44.5048 97.6636 54.3196 97.6636 65.9951C97.6636 79.8667 86.4184 91.1119 72.5467 91.1119C64.5617 91.1119 57.4471 87.3858 52.8466 81.5774Z"></path>
  </symbol>
  <symbol xmlns="http://www.w3.org/2000/svg" id="up">
    <path d="M6.85356 32.0928V34H2V32.0928C2 28.8285 3.23149 23.3635 5.73071 15.6613L10.7653 0H16.2347L21.2693 15.6613C23.7685 23.3635 25 28.8285 25 32.0928V34H20.1465V32.0928C20.1465 30.5524 19.8567 28.5351 19.3134 26.041H7.65039C7.1433 28.5718 6.85356 30.589 6.85356 32.0928ZM13.5181 6.05176L9.89607 17.7886C9.31654 19.6225 8.84567 21.273 8.44724 22.8134H18.589C18.1906 21.273 17.7197 19.5858 17.1402 17.7886L13.5181 6.05176Z"></path>
    <path d="M18.1343 54.3282L17.7546 55.7533L19.226 55.8531C21.9902 56.0407 24.1751 58.3438 24.1751 61.1562C24.1751 64.0918 21.7953 66.4716 18.8597 66.4716C16.7675 66.4716 14.9554 65.2631 14.0875 63.5005L12.9975 61.2868L11.9075 63.5005C11.0397 65.2631 9.22752 66.4716 7.13537 66.4716C4.19974 66.4716 1.81995 64.0918 1.81995 61.1562C1.81995 58.3438 4.00488 56.0407 6.76901 55.8531L8.24047 55.7533L7.86078 54.3282C7.74445 53.8916 7.6821 53.4317 7.6821 52.9553C7.6821 50.0197 10.0619 47.6399 12.9975 47.6399C15.9331 47.6399 18.3129 50.0197 18.3129 52.9553C18.3129 53.4317 18.2506 53.8916 18.1343 54.3282Z" fill="#2C2C2C"></path>
  </symbol>
  <symbol xmlns="http://www.w3.org/2000/svg" id="down">
    <path d="M19.1464 37.9072V36H24V37.9072C24 41.1715 22.7685 46.6365 20.2693 54.3387L15.2347 70H9.76535L4.73071 54.3387C2.23149 46.6365 1 41.1715 1 37.9072V36H5.85353V37.9072C5.85353 39.4476 6.14331 41.4649 6.68661 43.959H18.3496C18.8567 41.4282 19.1464 39.411 19.1464 37.9072ZM12.4819 63.9482L16.1039 52.2114C16.6835 50.3775 17.1543 48.727 17.5528 47.1866H7.41101C7.80944 48.727 8.28031 50.4142 8.85984 52.2114L12.4819 63.9482Z"></path>
    <path d="M7.86574 15.6718L8.24544 14.2467L6.77398 14.1469C4.00985 13.9593 1.82491 11.6562 1.82491 8.84381C1.82491 5.90819 4.20471 3.52839 7.14033 3.52839C9.23248 3.52839 11.0446 4.73695 11.9125 6.49952L13.0025 8.71319L14.0925 6.49952C14.9603 4.73695 16.7725 3.52839 18.8646 3.52839C21.8003 3.52839 24.1801 5.90819 24.1801 8.84381C24.1801 11.6562 21.9951 13.9593 19.231 14.1469L17.7595 14.2467L18.1392 15.6718C18.2555 16.1084 18.3179 16.5683 18.3179 17.0447C18.3179 19.9803 15.9381 22.3601 13.0025 22.3601C10.0669 22.3601 7.68706 19.9803 7.68706 17.0447C7.68706 16.5683 7.74942 16.1084 7.86574 15.6718Z" fill="#2C2C2C"></path>
  </symbol>
</svg>