<svg width="26" height="70" viewBox="0 0 26 70" fill="none" xmlns="http://www.w3.org/2000/svg">
<path d="M6.85356 32.0928V34H2V32.0928C2 28.8285 3.23149 23.3635 5.73071 15.6613L10.7653 0H16.2347L21.2693 15.6613C23.7685 23.3635 25 28.8285 25 32.0928V34H20.1465V32.0928C20.1465 30.5524 19.8567 28.5351 19.3134 26.041H7.65039C7.1433 28.5718 6.85356 30.589 6.85356 32.0928ZM13.5181 6.05176L9.89607 17.7886C9.31654 19.6225 8.84567 21.273 8.44724 22.8134H18.589C18.1906 21.273 17.7197 19.5858 17.1402 17.7886L13.5181 6.05176Z" fill="#222222"/>
<path d="M18.1343 54.3282L17.7546 55.7533L19.226 55.8531C21.9902 56.0407 24.1751 58.3438 24.1751 61.1562C24.1751 64.0918 21.7953 66.4716 18.8597 66.4716C16.7675 66.4716 14.9554 65.2631 14.0875 63.5005L12.9975 61.2868L11.9075 63.5005C11.0397 65.2631 9.22752 66.4716 7.13537 66.4716C4.19974 66.4716 1.81995 64.0918 1.81995 61.1562C1.81995 58.3438 4.00488 56.0407 6.76901 55.8531L8.24047 55.7533L7.86078 54.3282C7.74445 53.8916 7.6821 53.4317 7.6821 52.9553C7.6821 50.0197 10.0619 47.6399 12.9975 47.6399C15.9331 47.6399 18.3129 50.0197 18.3129 52.9553C18.3129 53.4317 18.2506 53.8916 18.1343 54.3282Z" fill="#2C2C2C"/>
</svg>
