<svg width="0" height="0" class="hidden">
  <symbol fill="#000000" version="1.1" id="block" xmlns="http://www.w3.org/2000/svg" xmlns:xlink="http://www.w3.org/1999/xlink" enable-background="new 0 0 72 72" xml:space="preserve" viewBox="0 0 72 72">
    <g>
      <g>
        <path d="M67.5,27.568c0,3.828-3.104,6.932-6.932,6.932H10.432c-3.828,0-6.932-3.104-6.932-6.932V10.432
			C3.5,6.604,6.604,3.5,10.432,3.5h50.137c3.828,0,6.932,3.104,6.932,6.932V27.568z M63.5,10.432c0-1.619-1.313-2.932-2.932-2.932
			H10.432C8.813,7.5,7.5,8.813,7.5,10.432v17.137c0,1.619,1.313,2.932,2.932,2.932h50.137c1.619,0,2.932-1.313,2.932-2.932V10.432z"></path>
      </g>
      <g>
        <g>
          <path d="M11.5,19.5c-0.553,0-1-0.447-1-1v-1.802c0-2.556,1.246-5.198,3.96-5.198h6.664c0.553,0,1,0.447,1,1s-0.447,1-1,1H14.46
				c-1.462,0-1.96,1.626-1.96,3.198V18.5C12.5,19.053,12.052,19.5,11.5,19.5z"></path>
        </g>
        <g>
          <path d="M10.694,22.93c-0.26,0-0.521-0.11-0.71-0.29c-0.19-0.189-0.29-0.45-0.29-0.71s0.1-0.52,0.29-0.71
				c0.38-0.38,1.04-0.37,1.41,0c0.189,0.19,0.3,0.45,0.3,0.71s-0.11,0.521-0.29,0.7C11.204,22.819,10.954,22.93,10.694,22.93z"></path>
        </g>
      </g>
      <g>
        <path d="M46.5,61.568c0,3.828-3.104,6.932-6.932,6.932H10.432c-3.828,0-6.932-3.104-6.932-6.932V44.432
			c0-3.828,3.104-6.932,6.932-6.932h29.137c3.828,0,6.932,3.104,6.932,6.932V61.568z M42.5,44.432c0-1.619-1.313-2.932-2.932-2.932
			H10.432c-1.619,0-2.932,1.313-2.932,2.932v17.137c0,1.619,1.313,2.932,2.932,2.932h29.137c1.619,0,2.932-1.313,2.932-2.932V44.432
			z"></path>
      </g>
      <g>
        <path d="M68.5,61.568c0,3.828-3.104,6.932-6.932,6.932h-5.137c-3.828,0-6.932-3.104-6.932-6.932V44.432
			c0-3.828,3.104-6.932,6.932-6.932h5.137c3.828,0,6.932,3.104,6.932,6.932V61.568z M64.5,44.432c0-1.619-1.313-2.932-2.932-2.932
			h-5.137c-1.619,0-2.932,1.313-2.932,2.932v17.137c0,1.619,1.313,2.932,2.932,2.932h5.137c1.619,0,2.932-1.313,2.932-2.932V44.432z
			"></path>
      </g>
    </g>
  </symbol>
  <symbol fill="none" xmlns="http://www.w3.org/2000/svg" viewBox="0 0 24 24" id="chat">
    <g id="Communication / Chat_Remove">
      <path id="Vector" d="M9 11H15M7.12357 18.7012L5.59961 19.9203C4.76744 20.5861 4.35115 20.9191 4.00098 20.9195C3.69644 20.9198 3.40845 20.7813 3.21846 20.5433C3 20.2696 3 19.7369 3 18.6712V7.2002C3 6.08009 3 5.51962 3.21799 5.0918C3.40973 4.71547 3.71547 4.40973 4.0918 4.21799C4.51962 4 5.08009 4 6.2002 4H17.8002C18.9203 4 19.4796 4 19.9074 4.21799C20.2837 4.40973 20.5905 4.71547 20.7822 5.0918C21 5.5192 21 6.07899 21 7.19691V14.8036C21 15.9215 21 16.4805 20.7822 16.9079C20.5905 17.2842 20.2843 17.5905 19.908 17.7822C19.4806 18 18.921 18 17.8031 18H9.12207C8.70603 18 8.49877 18 8.2998 18.0408C8.12328 18.0771 7.95216 18.1368 7.79168 18.2188C7.61281 18.3101 7.45249 18.4384 7.13478 18.6926L7.12357 18.7012Z" stroke="#000000" stroke-width="2" stroke-linecap="round" stroke-linejoin="round"></path>
    </g>
  </symbol>
  <symbol fill="#000000" xmlns="http://www.w3.org/2000/svg" enable-background="new 0 0 100 100" xml:space="preserve" viewBox="0 0 100 100" id="customers">
    <ellipse cx="41.3" cy="42.3" rx="12.2" ry="13.5"></ellipse>
    <path d="M52.6,57.4c-3.1,2.8-7,4.5-11.3,4.5c-4.3,0-8.3-1.7-11.3-4.6c-5.5,2.5-11,5.7-11,10.7v2.1
	c0,2.5,2,4.5,4.5,4.5h35.7c2.5,0,4.5-2,4.5-4.5v-2.1C63.6,63,58.2,59.9,52.6,57.4z"></path>
    <path d="M68,47.4c-0.2-0.1-0.3-0.2-0.5-0.3c-0.4-0.2-0.9-0.2-1.3,0.1c-2.1,1.3-4.6,2.1-7.2,2.1c-0.3,0-0.7,0-1,0
	c-0.5,1.3-1,2.6-1.7,3.7c0.4,0.2,0.9,0.3,1.4,0.6c5.7,2.5,9.7,5.6,12.5,9.8H75c2.2,0,4-1.8,4-4v-1.9C79,52.6,73.3,49.6,68,47.4z"></path>
    <path d="M66.9,34.2c0-4.9-3.6-8.9-7.9-8.9c-2.2,0-4.1,1-5.6,2.5c3.5,3.6,5.7,8.7,5.7,14.4c0,0.3,0,0.5,0,0.8
	C63.4,43,66.9,39.1,66.9,34.2z"></path>
  </symbol>
  <symbol version="1.1" id="dollar" xmlns="http://www.w3.org/2000/svg" xmlns:xlink="http://www.w3.org/1999/xlink" xml:space="preserve" viewBox="0 0 512 512">
    <g>
      <path d="M406.195,383.984c-8.391,15.734-19.922,28.859-34.516,39.609c-14.656,10.719-32.188,18.703-52.563,23.969
		c-8.906,2.25-18.234,3.813-27.703,5.094V512h-70.828v-58.156c-20.172-1.703-39.453-4.844-57.609-9.844
		c-27.719-7.594-64.016-38.25-64.016-38.25c-3.109-1.813-5.172-5-5.609-8.531c-0.453-3.563,0.766-7.156,3.313-9.688l35.484-35.5
		c3.828-3.781,9.766-4.5,14.359-1.688c0,0,26.563,23.063,46.688,28.563c20.125,5.469,40.094,8.219,60.016,8.219
		c25.125,0,45.891-4.438,62.359-13.313c16.5-8.938,24.719-22.75,24.719-41.625c0-13.594-4.031-24.313-12.172-32.188
		c-8.109-7.813-21.828-12.734-41.188-14.891l-63.563-5.469c-37.641-3.672-66.672-14.172-87.063-31.375
		c-20.453-17.266-30.609-43.453-30.609-78.453c0-19.375,3.906-36.625,11.766-51.797c7.875-15.172,18.563-27.984,32.172-38.422
		c13.594-10.469,29.438-18.313,47.469-23.531c7.547-2.188,15.453-3.625,23.484-4.938V0h70.828v50.094
		c16.531,1.625,32.266,4.281,46.906,8.313c24.844,6.781,50.938,27.188,50.938,27.188c3.266,1.688,5.484,4.875,6.047,8.5
		c0.563,3.688-0.641,7.313-3.219,9.969l-33.281,33.781c-3.547,3.594-9.031,4.531-13.563,2.188c0,0-19.703-14.031-36.734-18.469
		c-17.016-4.438-34.891-6.688-53.719-6.688c-24.609,0-42.797,4.719-54.531,14.109c-11.781,9.453-17.625,21.734-17.625,36.875
		c0,13.641,4.109,24.078,12.531,31.359c8.359,7.344,22.469,12.109,42.359,14.125l55.703,4.75
		c41.297,3.656,72.563,14.625,93.734,32.922c21.203,18.328,31.781,45.016,31.781,80.016
		C418.742,350.016,414.554,368.281,406.195,383.984z"></path>
    </g>
  </symbol>
  <symbol fill="none" xmlns="http://www.w3.org/2000/svg" viewBox="0 0 24 24" id="img">
    <path fill-rule="evenodd" clip-rule="evenodd" d="M3.17157 3.17157C2 4.34314 2 6.22876 2 9.99999V14C2 17.7712 2 19.6568 3.17157 20.8284C4.34315 22 6.22876 22 10 22H14C17.7712 22 19.6569 22 20.8284 20.8284C22 19.6569 22 17.7712 22 14V14V9.99999C22 7.16065 22 5.39017 21.5 4.18855V17C20.5396 17 19.6185 16.6185 18.9393 15.9393L18.1877 15.1877C17.4664 14.4664 17.1057 14.1057 16.6968 13.9537C16.2473 13.7867 15.7527 13.7867 15.3032 13.9537C14.8943 14.1057 14.5336 14.4664 13.8123 15.1877L13.6992 15.3008C13.1138 15.8862 12.8212 16.1788 12.5102 16.2334C12.2685 16.2758 12.0197 16.2279 11.811 16.0988C11.5425 15.9326 11.3795 15.5522 11.0534 14.7913L11 14.6667C10.2504 12.9175 9.87554 12.0429 9.22167 11.7151C8.89249 11.5501 8.52413 11.4792 8.1572 11.5101C7.42836 11.5716 6.75554 12.2445 5.40989 13.5901L3.5 15.5V2.88739C3.3844 2.97349 3.27519 3.06795 3.17157 3.17157Z" fill="#222222"></path>
    <path d="M3 10C3 8.08611 3.00212 6.75129 3.13753 5.74416C3.26907 4.76579 3.50966 4.2477 3.87868 3.87868C4.2477 3.50966 4.76579 3.26907 5.74416 3.13753C6.75129 3.00212 8.08611 3 10 3H14C15.9139 3 17.2487 3.00212 18.2558 3.13753C19.2342 3.26907 19.7523 3.50966 20.1213 3.87868C20.4903 4.2477 20.7309 4.76579 20.8625 5.74416C20.9979 6.75129 21 8.08611 21 10V14C21 15.9139 20.9979 17.2487 20.8625 18.2558C20.7309 19.2342 20.4903 19.7523 20.1213 20.1213C19.7523 20.4903 19.2342 20.7309 18.2558 20.8625C17.2487 20.9979 15.9139 21 14 21H10C8.08611 21 6.75129 20.9979 5.74416 20.8625C4.76579 20.7309 4.2477 20.4903 3.87868 20.1213C3.50966 19.7523 3.26907 19.2342 3.13753 18.2558C3.00212 17.2487 3 15.9139 3 14V10Z" stroke="#222222" stroke-width="2"></path>
    <circle cx="15" cy="9" r="2" fill="#222222"></circle>
  </symbol>
</svg>